<svg xmlns="http://www.w3.org/2000/svg" viewBox="0 0 512 512" fill="none">
  <rect width="512" height="512" rx="112" fill="#111"/>
  <path fill="#fff" d="M241.7 75.4c9-4.5 19.6-4.5 28.6 0l128 64c15.8 7.9 22.2 27.1 14.3 42.9C407 193.5 395.7 200 384 200v48c0 17.7-14.3 32-32 32h-3.4l26.7 160H416c17.7 0 32 14.3 32 32s-14.3 32-32 32H96c-17.7 0-32-14.3-32-32s14.3-32 32-32h40.7l26.7-160H160c-17.7 0-32-14.3-32-32v-48c-11.7 0-23-6.5-28.6-17.7c-7.9-15.8-1.5-35 14.3-42.9zM283.5 440L256 417.2L228.5 440zM228.8 280l-3.5 21l30.7 25.6l30.7-25.6l-3.5-21zM218.3 341.2l-8.6 51.5l35.2-29.4zM276.5 363.3l35.2 29.3l-8.6-51.4zM208 184c-8.8 0-16 7.2-16 16s7.2 16 16 16h96c8.8 0 16-7.2 16-16s-7.2-16-16-16z"/>
</svg>
